<svg xmlns:dc="http://purl.org/dc/elements/1.1/" xmlns:cc="http://creativecommons.org/ns#" xmlns:rdf="http://www.w3.org/1999/02/22-rdf-syntax-ns#" xmlns:svg="http://www.w3.org/2000/svg" xmlns="http://www.w3.org/2000/svg" xmlns:sodipodi="http://sodipodi.sourceforge.net/DTD/sodipodi-0.dtd" xmlns:inkscape="http://www.inkscape.org/namespaces/inkscape" version="1.1" x="0px" y="0px" viewBox="0 0 100 125" enable-background="new 0 0 512 512" xml:space="preserve"><path style="" d="M 50 5 C 25.254054 5 5.149826 24.97323 5 49.71875 L 5 50 C 5 74.852331 25.147722 95 50 95 C 74.852288 95 95 74.852331 95 50 C 95 25.147757 74.852288 5 50 5 z M 50 8.84375 C 72.728156 8.84375 91.15625 27.271924 91.15625 50 C 91.15625 72.728164 72.728156 91.15625 50 91.15625 C 27.271853 91.15625 8.84375 72.728164 8.84375 50 L 8.84375 49.75 C 8.9807784 27.119517 27.3691 8.84375 50 8.84375 z M 53.71875 13.53125 C 44.848393 13.556867 34.221715 18.425492 36.0625 25.34375 C 37.201719 30.997825 40.21999 35.220017 43.96875 39.15625 C 43.670113 39.384675 43.394767 39.626188 43.125 39.875 C 42.521575 40.28425 41.935253 40.760667 41.40625 41.28125 C 41.128444 41.24508 40.802763 41.22145 40.40625 41.21875 C 38.49184 41.120094 35.22761 40.168656 33.3125 37.9375 C 30.236304 34.343417 33.453452 21.434256 28.71875 21.6875 C 18.960859 22.243893 11.340021 46.958019 21.6875 49.75 C 27.153712 51.590429 32.310482 51.090865 37.59375 49.8125 C 37.643211 50.192943 37.6983 50.541142 37.78125 50.90625 C 37.836428 51.632831 37.974334 52.35932 38.15625 53.0625 C 37.985671 53.285341 37.79506 53.563479 37.59375 53.90625 C 36.551096 55.514887 34.077285 57.894581 31.1875 58.4375 C 26.536864 59.304399 16.991762 50.022939 14.84375 54.25 C 10.446607 62.978729 28.033362 81.97149 35.625 74.40625 C 39.951993 70.592605 42.090475 65.870937 43.625 60.65625 C 43.97589 60.80224 44.333259 60.92116 44.6875 61.03125 C 45.355038 61.354166 46.025001 61.588281 46.71875 61.78125 C 46.826377 62.03999 46.991694 62.342602 47.1875 62.6875 C 48.059247 64.394794 48.8809 67.725925 47.90625 70.5 C 46.331731 74.961071 33.538372 78.588683 36.125 82.5625 C 41.485792 90.734836 66.693271 85.013471 63.9375 74.65625 C 62.798237 69.002264 59.780001 64.780072 56.03125 60.84375 C 56.330578 60.614882 56.60472 60.374345 56.875 60.125 C 57.477752 59.715927 58.065456 59.238712 58.59375 58.71875 C 58.871583 58.75492 59.197272 58.77855 59.59375 58.78125 C 61.508151 58.879906 64.772381 59.831344 66.6875 62.0625 C 69.763651 65.656672 66.546539 78.565745 71.28125 78.3125 C 81.039133 77.756107 88.659989 53.041981 78.3125 50.25 C 72.846297 48.409485 67.689527 48.909135 62.40625 50.1875 C 62.357241 49.810692 62.30058 49.455578 62.21875 49.09375 C 62.163944 48.364332 62.026268 47.643517 61.84375 46.9375 C 62.014337 46.714748 62.205019 46.436609 62.40625 46.09375 C 63.44885 44.485201 65.922679 42.105508 68.8125 41.5625 C 73.463153 40.695513 83.008247 49.977061 85.15625 45.75 C 89.553349 37.021272 71.966673 18.028509 64.375 25.59375 C 60.04798 29.407394 57.909517 34.129063 56.375 39.34375 C 56.020361 39.196253 55.670596 39.07955 55.3125 38.96875 C 54.648002 38.648139 53.971755 38.410744 53.28125 38.21875 C 53.173588 37.960099 53.008367 37.657398 52.8125 37.3125 C 51.940753 35.605206 51.119083 32.274075 52.09375 29.5 C 53.668314 25.038841 66.492941 21.411228 63.90625 17.4375 C 63.319933 16.543655 62.467669 15.792516 61.46875 15.21875 C 59.434836 14.051717 56.675539 13.52235 53.71875 13.53125 z M 50 41.15625 C 54.885487 41.15625 58.84375 45.114521 58.84375 50 C 58.84375 54.885478 54.885487 58.84375 50 58.84375 C 45.114504 58.84375 41.15625 54.885478 41.15625 50 L 41.15625 49.9375 C 41.185705 45.072941 45.135405 41.15625 50 41.15625 z M 49.4375 44.4375 C 46.636757 44.720784 44.454908 47.093673 44.4375 49.96875 L 44.4375 50 C 44.4375 53.079984 46.920016 55.5625 50 55.5625 C 53.079984 55.5625 55.5625 53.079984 55.5625 50 C 55.5625 46.920016 53.079984 44.4375 50 44.4375 C 49.808325 44.4375 49.624216 44.418614 49.4375 44.4375 z " fill="#000000" fill-opacity="1" fill-rule="nonzero" stroke="none"/><text x="0" y="115" fill="#000000" font-size="5px" font-weight="bold" font-family="'Helvetica Neue', Helvetica, Arial-Unicode, Arial, Sans-serif">Created by Aha-Soft</text><text x="0" y="120" fill="#000000" font-size="5px" font-weight="bold" font-family="'Helvetica Neue', Helvetica, Arial-Unicode, Arial, Sans-serif">from the Noun Project</text></svg>