<svg xmlns="http://www.w3.org/2000/svg" xmlns:xlink="http://www.w3.org/1999/xlink" version="1.1" id="Layer_1" x="0px" y="0px" width="100px" height="100px" viewBox="5.0 -10.0 100.0 135.0" enable-background="new 0 0 100 100" xml:space="preserve">
<path d="M94.555,26.018h-4.327c-4.595-1.574-12.687-4.049-19.618-4.626c-0.636-0.053-1.269-0.08-1.883-0.08  c-5.723,0-9.354,2.235-12.274,4.031c-1.59,0.979-2.965,1.823-4.177,1.917l-1.054,0.052h-1.482l-1.161-0.053  c-1.212-0.096-2.586-0.939-4.176-1.917c-2.919-1.796-6.552-4.031-12.274-4.031c-0.614,0-1.248,0.027-1.883,0.08  c-6.931,0.577-15.023,3.053-19.618,4.626H6.302c-2.05,0-3.717,1.667-3.717,3.717v44.74c0,2.049,1.666,3.715,3.774,3.715  c0.001,0,0.001,0,0.002,0l41.661-2.018l4.405,0.025l2.066,0.099v3.159l2.842-1.705l2.652,1.705v-2.899l34.567,1.636  c2.049,0,3.717-1.667,3.717-3.717v-44.74C98.271,27.685,96.604,26.018,94.555,26.018z M59.718,70.543  c2.385-1.495,5.195-2.827,9.161-2.827c0.497,0,1.01,0.021,1.524,0.064c4.516,0.376,9.671,2.069,13.901,3.776  c-3.58-0.714-7.688-1.383-11.345-1.606C68.662,69.688,63.699,70.073,59.718,70.543z M93.009,75.609l0.058,0.032l-0.065-0.003  L93.009,75.609z M57.751,27.453c2.791-1.717,5.954-3.664,10.976-3.664c0.546,0,1.11,0.024,1.677,0.071  c8.366,0.697,18.875,4.412,21.804,5.497v43.04c-3.96-1.988-13.545-6.415-21.598-7.086c-0.583-0.049-1.164-0.073-1.73-0.073  c-5.815,0-9.642,2.601-12.436,4.498c-0.974,0.662-1.863,1.26-2.684,1.654c-0.068,0.011-0.134,0.022-0.199,0.033V29.543  C54.948,29.177,56.271,28.364,57.751,27.453z M27.409,72.424c6.534-0.4,14.952,0.81,18.415,1.376L9.401,75.563  C13.1,74.642,21.074,72.811,27.409,72.424z M17.159,71.313c4.111-1.621,8.991-3.175,13.292-3.533  c0.515-0.044,1.027-0.064,1.524-0.064c4.051,0,6.898,1.389,9.315,2.923c-4.102-0.51-9.446-0.969-14.033-0.688  C24.019,70.148,20.426,70.695,17.159,71.313z M30.452,23.86c0.566-0.047,1.131-0.071,1.677-0.071c5.021,0,8.185,1.946,10.976,3.664  c1.481,0.911,2.803,1.725,4.19,2.091v41.946c-0.873-0.388-1.83-1.039-2.882-1.754c-2.793-1.897-6.62-4.498-12.436-4.498  c-0.565,0-1.148,0.024-1.73,0.073c-8.052,0.671-17.638,5.098-21.597,7.086v-43.04C11.577,28.272,22.086,24.558,30.452,23.86z   M5.063,74.475v-44.74c0-0.638,0.487-1.159,1.107-1.226V75.7C5.549,75.634,5.063,75.112,5.063,74.475z M54.438,73.813  c0.018-0.008,0.036-0.018,0.055-0.025v0.029L54.438,73.813z M59.987,73.016c3.891-0.459,8.723-0.841,12.821-0.592  c6.252,0.382,14.107,2.173,17.864,3.104l-30.686-1.451V73.016z M95.793,74.475c0,0.656-0.514,1.188-1.108,1.232V28.509  c0.621,0.066,1.108,0.587,1.108,1.226V74.475z"/>
<text x="0.0" y="117.5" font-size="5.0" font-weight="bold" font-family="Helvetica Neue, Helvetica, Arial-Unicode, Arial, Sans-serif" fill="#000000">Created by Nathan Thomson</text><text x="0.0" y="122.5" font-size="5.0" font-weight="bold" font-family="Helvetica Neue, Helvetica, Arial-Unicode, Arial, Sans-serif" fill="#000000">from the Noun Project</text></svg>