<svg xmlns="http://www.w3.org/2000/svg" xmlns:xlink="http://www.w3.org/1999/xlink" version="1.1" id="&#1057;&#1083;&#1086;&#1081;_1" x="0px" y="0px" viewBox="5.0 -10.0 100.0 135.0" enable-background="new 0 0 100 100" xml:space="preserve" height="100px" width="100px">
<path d="M50,38.8c-6.2,0-11.3,5-11.3,11.3s5,11.3,11.3,11.3s11.3-5,11.3-11.3S56.2,38.8,50,38.8z M50,58.8c-4.8,0-8.8-3.9-8.8-8.8  s3.9-8.8,8.8-8.8s8.8,3.9,8.8,8.8S54.8,58.8,50,58.8z"/>
<path d="M50,13.8c-6.2,0-11.3,5-11.3,11.3s5,11.3,11.3,11.3s11.3-5,11.3-11.3S56.2,13.8,50,13.8z M50,33.8c-4.8,0-8.8-3.9-8.8-8.8  s3.9-8.8,8.8-8.8s8.8,3.9,8.8,8.8S54.8,33.8,50,33.8z"/>
<path d="M50,63.8c-6.2,0-11.3,5-11.3,11.3s5,11.3,11.3,11.3s11.3-5,11.3-11.3S56.2,63.8,50,63.8z M50,83.8c-4.8,0-8.8-3.9-8.8-8.8  s3.9-8.8,8.8-8.8s8.8,3.9,8.8,8.8S54.8,83.8,50,83.8z"/>
<path d="M88.8,13.8l-18.8,0C69.3,8.8,65.1,5,60,5H40c-5.1,0-9.3,3.8-9.9,8.8l-18.8,0c-0.3,0-0.6,0.1-0.9,0.4S10,14.7,10,15v5  c0,5.2,4.2,9.4,9.4,9.4c1.7,0,3.1,1.4,3.1,3.1V35c0,0.7,0.6,1.3,1.3,1.3H30v2.5l-18.8,0c-0.3,0-0.6,0.1-0.9,0.4S10,39.7,10,40v5  c0,5.2,4.2,9.4,9.4,9.4c1.7,0,3.1,1.4,3.1,3.1V60c0,0.7,0.6,1.3,1.3,1.3H30v2.5l-18.8,0c-0.3,0-0.6,0.1-0.9,0.4S10,64.7,10,65v5  c0,5.2,4.2,9.4,9.4,9.4c1.7,0,3.1,1.4,3.1,3.1V85c0,0.7,0.6,1.3,1.3,1.3h6.3c0.6,4.9,4.8,8.8,9.9,8.8h20c5.1,0,9.3-3.8,9.9-8.8h6.3  c0.7,0,1.3-0.6,1.3-1.3v-2.5c0-1.7,1.4-3.1,3.1-3.1c5.2,0,9.4-4.2,9.4-9.4v-5c0-0.3-0.1-0.6-0.4-0.9s-0.6-0.4-0.9-0.4l-18.8,0v-2.5  h6.3c0.7,0,1.3-0.6,1.3-1.3v-2.5c0-1.7,1.4-3.1,3.1-3.1c5.2,0,9.4-4.2,9.4-9.4v-5c0-0.3-0.1-0.6-0.4-0.9s-0.6-0.4-0.9-0.4l-18.8,0  v-2.5h6.3c0.7,0,1.3-0.6,1.3-1.3v-2.5c0-1.7,1.4-3.1,3.1-3.1c5.2,0,9.4-4.2,9.4-9.4v-5c0-0.3-0.1-0.6-0.4-0.9S89.1,13.8,88.8,13.8z   M30,83.8h-5v-1.3c0-3.1-2.5-5.6-5.6-5.6c-3.8,0-6.9-3.1-6.9-6.9v-3.8l17.5,0V83.8z M30,58.8h-5v-1.3c0-3.1-2.5-5.6-5.6-5.6  c-3.8,0-6.9-3.1-6.9-6.9v-3.8l17.5,0V58.8z M30,33.8h-5v-1.3c0-3.1-2.5-5.6-5.6-5.6c-3.8,0-6.9-3.1-6.9-6.9v-3.8l17.5,0V33.8z   M65,85c0,2.8-2.2,5-5,5H40c-2.8,0-5-2.2-5-5V15c0-2.8,2.2-5,5-5h20c2.8,0,5,2.2,5,5V85z M87.5,66.3V70c0,3.8-3.1,6.9-6.9,6.9  c-3.1,0-5.6,2.5-5.6,5.6v1.3h-5V66.3L87.5,66.3z M87.5,41.3V45c0,3.8-3.1,6.9-6.9,6.9c-3.1,0-5.6,2.5-5.6,5.6v1.3h-5V41.3L87.5,41.3  z M87.5,20c0,3.8-3.1,6.9-6.9,6.9c-3.1,0-5.6,2.5-5.6,5.6v1.3h-5V16.3l17.5,0V20z"/>
<text x="0.0" y="117.5" font-size="5.0" font-weight="bold" font-family="Helvetica Neue, Helvetica, Arial-Unicode, Arial, Sans-serif" fill="#000000">Created by Arthur Shlain</text><text x="0.0" y="122.5" font-size="5.0" font-weight="bold" font-family="Helvetica Neue, Helvetica, Arial-Unicode, Arial, Sans-serif" fill="#000000">from the Noun Project</text></svg>