<svg xmlns="http://www.w3.org/2000/svg" xmlns:xlink="http://www.w3.org/1999/xlink" version="1.1" id="Layer_1" x="0px" y="0px" width="100px" height="63.149px" viewBox="5.0 -6.3149 100.0 85.25115" enable-background="new 0 0 100 63.149" xml:space="preserve">
<path fill="#010101" d="M51.071,10.07c0.059,0.623-0.242,1.266-1.027,1.471c-3.338,0.871-7.029,1.981-9.856,3.995  c-7.936,5.649,1.951,19.048,6.696,23.395c0.57,0.522,0.559,1.53,0,2.058c-1.251,1.173-2.554,2.227-3.904,3.283  c-1.461,1.139-3.534-0.903-2.058-2.056c0.959-0.75,1.884-1.514,2.792-2.303c-5.352-5.403-12.279-15.862-8.491-23.221  c2.447-4.751,9.239-6.7,14.05-7.955c0.658-0.171,1.176,0.089,1.485,0.512c-1.206-3.13-2.602-6.201-4.266-9.25  c-4.136,7.142-16.936,9.921-23.844,10.958C15.147,12.086,7.542,11.59,0,11.177C3.491,36.21,18.551,66.006,47.742,62.93  c14.428-3.179,9.952-25.891,7.935-36.076C54.502,20.937,53.062,15.411,51.071,10.07z M43.471,23.161  c-0.461,0.656-0.721,1.179-0.841,1.971c-0.283,1.85-3.085,1.062-2.805-0.773c0.198-1.295,0.949-2.736,1.931-3.6  c2.245-1.974,5.143-1.78,7.805-0.792c1.742,0.647,0.989,3.459-0.773,2.805C47.222,22.192,44.672,21.456,43.471,23.161z   M10.811,23.665c4.307-4.364,10.766-5.707,16.609-4.405c1.83,0.409,1.053,3.213-0.773,2.805c-4.835-1.078-10.217,0.048-13.778,3.658  C11.549,27.06,9.495,25.002,10.811,23.665z M27.59,28.547c-3.029-0.739-6.546,0.061-7.386,3.044  c-0.508,1.802-3.312,1.037-2.805-0.773c1.367-4.857,6.558-6.152,10.962-5.077C30.183,26.186,29.412,28.991,27.59,28.547z   M47.982,53.945c-6.441,4.091-15.773,2.636-19.712-2.231c-0.063-0.079,0.336-0.834,0.397-0.843  c6.953-1.032,18.72-3.953,24.486-7.797c0.308-0.204,0.733,0.068,0.729,0.418C53.815,47.932,51.772,51.539,47.982,53.945z"/>
<path fill="none" d="M26.647,22.064c1.826,0.409,2.603-2.396,0.773-2.805c-5.843-1.302-12.302,0.041-16.609,4.405  c-1.318,1.338,0.738,3.396,2.058,2.058C16.43,22.112,21.812,20.987,26.647,22.064z"/>
<path fill="none" d="M49.562,19.967c-2.662-0.987-5.561-1.181-7.805,0.792c-0.982,0.864-1.732,2.304-1.931,3.6  c-0.28,1.835,2.521,2.622,2.805,0.773c0.121-0.792,0.38-1.316,0.841-1.971c1.203-1.703,3.751-0.969,5.317-0.389  C50.55,23.426,51.302,20.614,49.562,19.967z"/>
<path fill="none" d="M28.362,25.743c-4.404-1.075-9.596,0.22-10.962,5.077c-0.509,1.809,2.297,2.574,2.805,0.773  c0.839-2.985,4.356-3.785,7.386-3.044C29.412,28.991,30.183,26.186,28.362,25.743z"/>
<path fill="none" d="M49.272,8.735c-4.811,1.256-11.604,3.204-14.05,7.955c-3.789,7.357,3.141,17.817,8.491,23.222  c-0.907,0.788-1.833,1.552-2.792,2.302c-1.478,1.152,0.598,3.194,2.058,2.056c1.352-1.057,2.654-2.11,3.904-3.282  c0.558-0.528,0.57-1.535,0-2.059c-4.746-4.347-14.631-17.745-6.697-23.395c2.827-2.014,6.518-3.124,9.856-3.995  c0.785-0.206,1.086-0.847,1.027-1.471c-0.102-0.275-0.207-0.549-0.313-0.823C50.448,8.825,49.93,8.564,49.272,8.735z"/>
<path fill="#010101" d="M99.71,6.765c0,0,0,0-6.41,1.805c-29.171,8.22-36.604-3.636-38.365-2.65  c-0.251,0.14-0.586,1.432-0.914,3.538c1.426,3.794,2.584,7.683,3.531,11.645c4.684-1.041,11.614-5.419,12.704,2.103  c0.528,3.649,0.448,7.477-0.586,11.048c-0.592,2.056-1.278,4.18-2.423,6.008c-0.415,0.659,1.397,1.515,1.823,1.952  c1.31,1.341-0.745,3.399-2.056,2.056c-0.98-1.003-3.652-1.535-3.177-3.514c0.932-3.88,3.42-6.973,3.732-11.212  c0.188-2.522,0.286-10.485-4.443-7.427c-1.631,1.055-3.177,1.641-4.917,1.913c0.13,0.614,0.261,1.226,0.379,1.846  c0.188,0.05,0.375,0.134,0.552,0.272c1.723,1.335,3.222,1.578,4.906,0.071c1.393-1.247,3.456,0.803,2.056,2.058  c-1.224,1.096-2.857,2.188-4.602,1.968c-0.832-0.106-1.562-0.342-2.253-0.667c0.38,2.345,0.69,4.711,0.942,7.093  c0.254,2.396,0.443,5.091,0.43,7.854c2.724-0.144,5.557,0.85,8.161,1.561c1.689,0.457,3.801,0.958,5.052,2.294  c1.265,1.352,4.443,4.631,1.848,6.213c-0.334,0.206-0.661,0.251-0.955,0.195c-2.748,0.068-4.648-1.257-6.92-2.699  c-1.796-1.139-3.776-2.007-5.935-2.133c-0.436-0.024-1.026,0.057-1.592,0.088c-0.341,2.684-0.96,5.284-2.003,7.582  c2.271,3.661,5.398,5.804,9.653,5.401C105.245,59.479,99.71,6.765,99.71,6.765z M85.742,32.507  c-2.943,0.943-10.733-0.805-10.129-5.031c0.268-1.851,3.067-1.06,2.806,0.773c0.084-0.588,0.054-0.207,0.49,0.063  c0.218,0.143,0.443,0.278,0.674,0.399c0.366,0.188,0.731,0.376,1.123,0.506c1.354,0.447,2.854,0.939,4.264,0.487  C86.761,29.127,87.521,31.938,85.742,32.507z M88.947,27.335c-5.174-1.007-10.073-1.677-14.354-4.985  c-1.481-1.146,0.594-3.191,2.059-2.058c3.782,2.926,8.532,3.355,13.069,4.238C91.561,24.89,90.778,27.69,88.947,27.335z"/>
<text x="0.0" y="74.200075" font-size="3.15745" font-weight="bold" font-family="Helvetica Neue, Helvetica, Arial-Unicode, Arial, Sans-serif" fill="#000000">Created by R&#233;my M&#233;dard</text><text x="0.0" y="77.357525" font-size="3.15745" font-weight="bold" font-family="Helvetica Neue, Helvetica, Arial-Unicode, Arial, Sans-serif" fill="#000000">from the Noun Project</text></svg>