<svg xmlns="http://www.w3.org/2000/svg" width="100" height="63.149" viewBox="5.0 -6.3149 100.0 85.25115"><path fill="#010101" d="M51.07 10.07c.06.623-.24 1.266-1.026 1.47-3.338.872-7.03 1.982-9.856 3.996-7.936 5.65 1.95 19.048 6.696 23.395.57.523.56 1.53 0 2.06-1.25 1.172-2.554 2.226-3.904 3.282-1.46 1.14-3.534-.903-2.058-2.056.96-.75 1.884-1.514 2.792-2.303-5.352-5.403-12.28-15.862-8.49-23.22 2.446-4.752 9.238-6.7 14.05-7.956.657-.17 1.175.09 1.484.512-1.206-3.13-2.602-6.202-4.266-9.25-4.136 7.14-16.936 9.92-23.844 10.957-7.5 1.13-15.106.633-22.648.22C3.49 36.21 18.55 66.007 47.742 62.93c14.428-3.18 9.952-25.89 7.935-36.076-1.175-5.917-2.615-11.443-4.606-16.784zm-7.6 13.09c-.46.657-.72 1.18-.84 1.972-.283 1.85-3.085 1.062-2.805-.773.198-1.296.95-2.737 1.93-3.6 2.246-1.975 5.144-1.78 7.806-.793 1.743.647.99 3.46-.772 2.805-1.566-.58-4.116-1.316-5.317.39zm-32.66.505c4.308-4.364 10.767-5.707 16.61-4.405 1.83.41 1.053 3.213-.773 2.805-4.835-1.078-10.217.048-13.778 3.658-1.32 1.337-3.375-.72-2.06-2.058zm16.78 4.882c-3.03-.74-6.546.06-7.386 3.044-.508 1.803-3.312 1.038-2.805-.772 1.366-4.857 6.557-6.152 10.96-5.077 1.823.446 1.052 3.25-.77 2.807zm20.392 25.398c-6.44 4.09-15.773 2.636-19.712-2.23-.063-.08.336-.835.397-.844 6.953-1.03 18.72-3.952 24.486-7.796.308-.204.733.068.73.418-.068 4.44-2.11 8.047-5.9 10.453z"/><path d="M26.647 22.064c1.826.41 2.603-2.396.773-2.805-5.843-1.303-12.302.04-16.61 4.404-1.317 1.338.74 3.396 2.06 2.058 3.56-3.61 8.942-4.735 13.777-3.658zM49.562 19.967c-2.662-.987-5.56-1.18-7.805.792-.982.863-1.732 2.303-1.93 3.6-.28 1.834 2.52 2.62 2.804.772.122-.792.38-1.316.842-1.97 1.203-1.704 3.75-.97 5.317-.39 1.76.654 2.512-2.158.772-2.805zM28.362 25.743c-4.404-1.075-9.596.22-10.962 5.077-.51 1.81 2.297 2.574 2.805.773.84-2.985 4.356-3.785 7.386-3.044 1.822.44 2.593-2.364.772-2.807zM49.272 8.735c-4.81 1.256-11.604 3.204-14.05 7.955-3.79 7.357 3.14 17.817 8.49 23.222-.906.788-1.832 1.552-2.79 2.302-1.48 1.152.597 3.194 2.057 2.056 1.35-1.057 2.653-2.11 3.903-3.282.558-.528.57-1.535 0-2.06-4.746-4.346-14.63-17.744-6.697-23.394 2.827-2.014 6.518-3.124 9.856-3.995.785-.207 1.086-.848 1.027-1.472-.103-.275-.208-.55-.314-.823-.308-.42-.826-.68-1.484-.51z" fill="none"/><path fill="#010101" d="M99.71 6.765L93.3 8.57c-29.17 8.22-36.604-3.636-38.365-2.65-.25.14-.586 1.432-.914 3.538 1.427 3.794 2.585 7.683 3.532 11.645 4.684-1.04 11.614-5.42 12.704 2.103.528 3.65.448 7.477-.586 11.048-.592 2.056-1.278 4.18-2.423 6.008-.415.66 1.397 1.515 1.823 1.952 1.31 1.34-.745 3.4-2.056 2.056-.98-1.003-3.652-1.535-3.177-3.514.932-3.88 3.42-6.973 3.732-11.212.187-2.522.285-10.485-4.444-7.427-1.63 1.055-3.177 1.64-4.917 1.913.13.614.26 1.226.378 1.846.188.05.375.134.552.272 1.723 1.335 3.222 1.578 4.906.07 1.393-1.246 3.456.804 2.056 2.06-1.224 1.095-2.857 2.187-4.602 1.967-.832-.106-1.562-.342-2.253-.667.38 2.345.69 4.71.942 7.093.253 2.397.442 5.092.43 7.855 2.723-.144 5.556.85 8.16 1.56 1.69.458 3.8.96 5.052 2.295 1.265 1.352 4.443 4.63 1.848 6.213-.334.206-.66.25-.955.195-2.748.068-4.648-1.257-6.92-2.7-1.796-1.138-3.776-2.006-5.935-2.132-.436-.024-1.026.057-1.592.088-.34 2.684-.96 5.284-2.003 7.582 2.27 3.66 5.398 5.804 9.653 5.4C105.245 59.48 99.71 6.767 99.71 6.767zM85.742 32.507c-2.943.943-10.733-.805-10.13-5.03.27-1.852 3.068-1.06 2.807.772.083-.59.053-.208.49.062.217.143.442.278.673.4.366.187.73.375 1.123.505 1.354.447 2.854.94 4.264.487 1.79-.577 2.55 2.234.772 2.803zm3.205-5.172c-5.174-1.007-10.073-1.677-14.354-4.985-1.48-1.146.594-3.19 2.06-2.058 3.78 2.926 8.53 3.355 13.068 4.238 1.84.36 1.058 3.16-.773 2.805z"/><text y="74.2" font-size="3.157" font-weight="bold" font-family="Helvetica Neue, Helvetica, Arial-Unicode, Arial, Sans-serif">Created by Rémy Médard</text><text y="77.358" font-size="3.157" font-weight="bold" font-family="Helvetica Neue, Helvetica, Arial-Unicode, Arial, Sans-serif">from the Noun Project</text></svg>