<svg xmlns="http://www.w3.org/2000/svg" width="100" height="100" viewBox="5.0 -10.0 100.0 135.0"><path d="M94.555 26.018h-4.327c-4.595-1.574-12.687-4.05-19.618-4.626-.636-.053-1.27-.08-1.883-.08-5.723 0-9.354 2.235-12.274 4.03-1.59.98-2.965 1.824-4.177 1.918l-1.054.052H49.74l-1.16-.053c-1.213-.097-2.587-.94-4.177-1.918-2.92-1.796-6.552-4.03-12.274-4.03-.615 0-1.25.026-1.884.08-6.93.576-15.023 3.052-19.618 4.625H6.302c-2.05 0-3.717 1.667-3.717 3.717v44.74c0 2.05 1.666 3.715 3.774 3.715l41.662-2.02 4.405.026 2.066.1v3.158l2.842-1.705 2.652 1.704v-2.9l34.567 1.637c2.05 0 3.717-1.666 3.717-3.716v-44.74c0-2.05-1.666-3.716-3.715-3.716zM59.718 70.543c2.385-1.495 5.195-2.827 9.16-2.827.498 0 1.01.02 1.525.064 4.516.376 9.67 2.07 13.9 3.776-3.58-.714-7.687-1.383-11.344-1.606-4.298-.262-9.26.123-13.242.593zm33.29 5.066l.06.03L93 75.64l.007-.03zM57.752 27.452c2.792-1.717 5.955-3.664 10.977-3.664.546 0 1.11.023 1.677.07 8.366.697 18.875 4.412 21.804 5.497v43.04c-3.96-1.988-13.545-6.415-21.598-7.086-.583-.048-1.164-.072-1.73-.072-5.815 0-9.642 2.6-12.436 4.498-.974.662-1.863 1.26-2.684 1.654-.068.01-.134.022-.2.033v-41.88c1.388-.366 2.71-1.18 4.19-2.09zm-30.34 44.97c6.533-.4 14.95.81 18.414 1.377L9.4 75.563c3.7-.92 11.674-2.752 18.01-3.14zm-10.25-1.11c4.11-1.62 8.99-3.175 13.29-3.533.516-.044 1.028-.064 1.525-.064 4.05 0 6.898 1.39 9.315 2.923-4.102-.51-9.446-.97-14.033-.69-3.238.198-6.83.745-10.098 1.363zM30.45 23.86c.566-.047 1.13-.07 1.677-.07 5.02 0 8.184 1.945 10.975 3.663 1.48.91 2.803 1.725 4.19 2.09V71.49c-.873-.388-1.83-1.04-2.882-1.754-2.793-1.897-6.62-4.498-12.436-4.498-.565 0-1.148.024-1.73.073-8.052.672-17.638 5.1-21.597 7.087v-43.04c2.927-1.085 13.436-4.8 21.802-5.497zM5.062 74.475v-44.74c0-.638.488-1.16 1.108-1.226V75.7c-.62-.066-1.107-.588-1.107-1.225zm49.376-.662c.018-.008.036-.018.055-.025v.03l-.055-.005zm5.55-.797c3.89-.46 8.722-.84 12.82-.592 6.252.382 14.107 2.173 17.864 3.104l-30.686-1.45v-1.062zm35.805 1.46c0 .655-.514 1.187-1.108 1.23V28.51c.62.065 1.108.586 1.108 1.225v44.74z"/><text y="117.5" font-size="5" font-weight="bold" font-family="Helvetica Neue, Helvetica, Arial-Unicode, Arial, Sans-serif">Created by Nathan Thomson</text><text y="122.5" font-size="5" font-weight="bold" font-family="Helvetica Neue, Helvetica, Arial-Unicode, Arial, Sans-serif">from the Noun Project</text></svg>