<svg xmlns="http://www.w3.org/2000/svg" width="100" height="100" viewBox="0 0 100 100"><path d="M69.09 6.55c-3.16-2.59-5.353-1.98-8.517 3.66-2.09 3.73-5.417 4.18-7.455 4.067l.014-.746c2.363-1.174 4.03-3.557 4.03-6.366C57.16 3.2 53.95 0 50 0s-7.174 3.2-7.174 7.165c0 2.81 1.667 5.192 4.036 6.36l.007.753c-2.032.114-5.366-.335-7.456-4.066-3.15-5.64-5.352-6.25-8.502-3.662C27.742 9.14 15.242 24.08 0 22.708c0 0 3.02 6.86 11.256 5.34 0 0 4.4 4.566 11.543 1.37 0 0 3.71 3.346 9.615.302 0 0 4.388 3.353 9.07.456 0 0 2.642 1.914 5.58 1.42l.187 17.245c-.332-.064-.6-.142-.95-.204-.013-.006-5.117-1.1-10.515-2.614-5.195-1.36-10.898-3.568-11.738-4.717.07-.072.188-.127.338-.2.462-.243 1.25-.494 2.188-.686 1.907-.39 4.492-.587 7.09-.69 5.163-.187 6.094.038 6.185.055.008-.163 2.99.352 3.81-2.686-.032-.027.06-.15.007-.223-.17-2.09-1.777-2.194-3.093-2.438-2.135-.28-1.022-.17-3.9-.134-4.726.352-19.29-.827-21.125 6.84 0 .214-.014.35-.04.54.612 6.676 14.434 9.573 24.447 11.57-3.398 2.326-5.215 5.353-5.938 9.267-.346 4.173 2.968 8.145 10.663 12.584-5.847 4.14-9.688 8.027-9.375 12.722.547 3.827 3.926 8.944 10.566 12.167.02.007.026-.007.04 0h.02s-4.65-7.09-4.962-10.97c-.306-2.266.983-5.612 6.634-9.643l.163 14.18h.025c.04 1.205.97 2.168 2.142 2.168 1.17 0 2.103-.963 2.142-2.168h.02l.187-13.81c5.208 3.862 6.387 7.07 6.087 9.272-.312 3.88-4.954 10.97-4.954 10.97h.013s.014.007.046 0c6.633-3.223 10.02-8.34 10.56-12.168.31-4.694-3.53-8.58-9.37-12.722 7.69-4.44 11.01-8.41 10.665-12.584-.723-3.913-2.54-6.94-5.944-9.268 10.02-1.996 23.836-4.893 24.448-11.57-.026-.188-.04-.325-.04-.54-1.83-7.666-16.4-6.487-21.126-6.84-2.877-.035-1.764-.145-3.9.134-1.314.244-2.922.348-3.092 2.438-.052.072.046.195.014.222.82 3.037 3.802 2.522 3.81 2.686.083-.017 1.015-.24 6.184-.056 2.59.104 5.176.303 7.083.69.945.192 1.72.442 2.19.687.15.072.272.127.345.2-.84 1.148-6.543 3.355-11.738 4.716-5.404 1.515-10.508 2.608-10.52 2.615-.13.026-.235.052-.365.075l.222-17.12c2.955.52 5.618-1.415 5.618-1.415 4.668 2.897 9.07-.456 9.07-.456 5.903 3.043 9.608-.304 9.608-.304 7.142 3.197 11.543-1.37 11.543-1.37 8.23 1.52 11.257-5.338 11.257-5.338-15.247 1.37-27.747-13.567-30.91-16.16zM43.267 67.71c-1.907-1.184-2.8-2.785-2.624-3.866.104-1.504-.417-5.09 6.7-7.702l.162 14.245c-1.373-.866-2.793-1.758-4.238-2.676zm15.43-3.866c.176 1.08-.717 2.683-2.624 3.867-1.25.802-2.474 1.563-3.672 2.318l.183-13.665c6.49 2.598 6.01 6.023 6.113 7.48z"/></svg>