<svg xmlns="http://www.w3.org/2000/svg" width="100" height="100" viewBox="-1 -1.167 100 100" overflow="visible" enable-background="new -1 -1.167 100 100"><path d="M49 22.768c-1.64 0-2.97-1.33-2.97-2.97V2.97C46.03 1.33 47.36 0 49 0c1.64 0 2.97 1.33 2.97 2.97V19.8c0 1.64-1.33 2.968-2.97 2.968zM49 98c-1.64 0-2.97-1.33-2.97-2.97V78.203c0-1.64 1.33-2.97 2.97-2.97 1.64 0 2.97 1.33 2.97 2.97V95.03c0 1.64-1.33 2.97-2.97 2.97zM95.032 51.968h-16.83c-1.64 0-2.97-1.328-2.97-2.97 0-1.64 1.33-2.97 2.97-2.97h16.83c1.64 0 2.97 1.33 2.97 2.97 0 1.642-1.33 2.97-2.97 2.97zM19.798 51.968H2.968C1.33 51.968 0 50.64 0 49s1.33-2.97 2.97-2.97h16.828c1.64 0 2.97 1.33 2.97 2.97 0 1.64-1.33 2.968-2.97 2.968zM81.55 84.52c-.76 0-1.52-.29-2.1-.87l-11.9-11.9c-1.16-1.16-1.16-3.04 0-4.198 1.16-1.16 3.04-1.16 4.2 0l11.9 11.898c1.16 1.16 1.16 3.04 0 4.2-.58.58-1.34.87-2.1.87zM28.353 31.32c-.76 0-1.52-.29-2.1-.87l-11.9-11.898c-1.16-1.16-1.16-3.04 0-4.2 1.16-1.16 3.04-1.16 4.2 0l11.9 11.9c1.16 1.16 1.16 3.04 0 4.2-.58.58-1.34.87-2.1.87zM16.454 84.52c-.76 0-1.52-.29-2.1-.87-1.16-1.158-1.16-3.038 0-4.198l11.9-11.9c1.16-1.16 3.038-1.16 4.198 0 1.16 1.16 1.16 3.04 0 4.2l-11.9 11.9c-.577.58-1.338.87-2.098.87zM69.652 31.324c-.76 0-1.52-.29-2.1-.87-1.16-1.16-1.16-3.04 0-4.2l11.9-11.9c1.16-1.16 3.04-1.16 4.198 0 1.16 1.16 1.16 3.04 0 4.2l-11.9 11.9c-.58.58-1.338.87-2.098.87zM49 68.362c-10.674 0-19.36-8.686-19.36-19.362 0-10.675 8.686-19.36 19.36-19.36 10.677 0 19.362 8.685 19.362 19.36 0 10.676-8.685 19.362-19.36 19.362zm0-32.783c-7.4 0-13.42 6.02-13.42 13.42S41.6 62.422 49 62.422c7.402 0 13.422-6.02 13.422-13.422 0-7.4-6.02-13.42-13.42-13.42z"/></svg>