<?xml version="1.0" standalone="no"?>
<!DOCTYPE svg PUBLIC "-//W3C//DTD SVG 20010904//EN"
 "http://www.w3.org/TR/2001/REC-SVG-20010904/DTD/svg10.dtd">
<svg version="1.0" xmlns="http://www.w3.org/2000/svg"
 width="600.000000pt" height="700.000000pt" viewBox="0 0 600.000000 700.000000"
 preserveAspectRatio="xMidYMid meet">
<metadata>
Created by potrace 1.11, written by Peter Selinger 2001-2013
</metadata>
<g transform="translate(0.000000,700.000000) scale(0.100000,-0.100000)"
fill="#000000" stroke="none">
<path d="M2638 5705 c-329 -47 -601 -183 -818 -411 -262 -275 -401 -638 -402
-1049 -1 -240 34 -414 127 -633 84 -199 190 -366 483 -764 321 -435 437 -617
577 -903 46 -93 106 -232 134 -307 50 -134 121 -365 121 -394 0 -9 5 -12 10
-9 6 3 10 14 10 23 0 32 81 287 135 422 149 378 298 630 682 1153 267 364 358
501 444 669 126 250 168 409 176 673 4 153 2 198 -15 301 -55 317 -202 605
-427 830 -204 204 -425 324 -710 384 -131 27 -390 35 -527 15z m348 -632 c54
-156 104 -283 109 -283 6 0 141 63 300 139 160 76 291 137 293 136 1 -1 -61
-135 -138 -297 -77 -163 -140 -297 -140 -300 0 -2 139 -53 310 -114 170 -60
310 -111 310 -114 0 -3 -140 -54 -310 -114 -171 -60 -310 -111 -310 -113 0 -2
63 -138 140 -300 77 -163 139 -297 138 -298 -2 -1 -133 60 -293 136 -159 76
-294 138 -300 138 -5 1 -59 -139 -119 -309 -60 -171 -111 -309 -112 -307 -2 2
-51 138 -110 303 -58 164 -110 303 -114 308 -5 4 -140 -55 -302 -131 -161 -77
-294 -139 -296 -137 -2 1 58 132 133 291 75 158 139 293 141 298 2 6 -135 60
-306 120 -170 61 -310 112 -310 115 0 3 140 54 310 115 177 62 309 114 306
120 -2 5 -65 139 -140 296 -75 158 -136 289 -136 292 0 3 134 -59 298 -137
287 -138 297 -142 308 -122 6 12 57 153 114 314 96 272 104 291 115 265 6 -15
56 -155 111 -310z"/>
</g>
</svg>
