<svg version="1" xmlns="http://www.w3.org/2000/svg" width="800" height="933.333" viewBox="0 0 600.000000 700.000000"><path d="M263.8 129.5c-32.9 4.7-60.1 18.3-81.8 41.1-26.2 27.5-40.1 63.8-40.2 104.9-.1 24 3.4 41.4 12.7 63.3 8.4 19.9 19 36.6 48.3 76.4 32.1 43.5 43.7 61.7 57.7 90.3 4.6 9.3 10.6 23.2 13.4 30.7 5 13.4 12.1 36.5 12.1 39.4 0 .9.5 1.2 1 .9.6-.3 1-1.4 1-2.3 0-3.2 8.1-28.7 13.5-42.2 14.9-37.8 29.8-63 68.2-115.3 26.7-36.4 35.8-50.1 44.4-66.9 12.6-25 16.8-40.9 17.6-67.3.4-15.3.2-19.8-1.5-30.1-5.5-31.7-20.2-60.5-42.7-83-20.4-20.4-42.5-32.4-71-38.4-13.1-2.7-39-3.5-52.7-1.5zm34.8 63.2C304 208.3 309 221 309.5 221c.6 0 14.1-6.3 30-13.9 16-7.6 29.1-13.7 29.3-13.6.1.1-6.1 13.5-13.8 29.7-7.7 16.3-14 29.7-14 30 0 .2 13.9 5.3 31 11.4 17 6 31 11.1 31 11.4 0 .3-14 5.4-31 11.4-17.1 6-31 11.1-31 11.3 0 .2 6.3 13.8 14 30 7.7 16.3 13.9 29.7 13.8 29.8-.2.1-13.3-6-29.3-13.6-15.9-7.6-29.4-13.8-30-13.8-.5-.1-5.9 13.9-11.9 30.9-6 17.1-11.1 30.9-11.2 30.7-.2-.2-5.1-13.8-11-30.3-5.8-16.4-11-30.3-11.4-30.8-.5-.4-14 5.5-30.2 13.1-16.1 7.7-29.4 13.9-29.6 13.7-.2-.1 5.8-13.2 13.3-29.1 7.5-15.8 13.9-29.3 14.1-29.8.2-.6-13.5-6-30.6-12-17-6.1-31-11.2-31-11.5 0-.3 14-5.4 31-11.5 17.7-6.2 30.9-11.4 30.6-12-.2-.5-6.5-13.9-14-29.6-7.5-15.8-13.6-28.9-13.6-29.2 0-.3 13.4 5.9 29.8 13.7 28.7 13.8 29.7 14.2 30.8 12.2.6-1.2 5.7-15.3 11.4-31.4 9.6-27.2 10.4-29.1 11.5-26.5.6 1.5 5.6 15.5 11.1 31z"/></svg>