<svg xmlns="http://www.w3.org/2000/svg" xmlns:xlink="http://www.w3.org/1999/xlink" version="1.1" id="Layer_1" x="0px" y="0px" width="100px" height="94.907px" viewBox="5.0 -9.4907 100.0 128.12445" enable-background="new 0 0 100 94.907" xml:space="preserve">
<g>
	<polygon points="49.998,0 2.549,26.827 97.451,26.827  "/>
	<rect x="2.549" y="29.827" width="94.902" height="7.469"/>
	<polygon points="96,85.513 96,81.12 91.053,81.12 91.053,40.18 78.229,40.18 78.229,81.12 67.969,81.12 67.969,40.18 55.145,40.18    55.145,81.12 44.885,81.12 44.885,40.18 32.06,40.18 32.06,81.12 21.8,81.12 21.8,40.18 8.976,40.18 8.965,81.12 4,81.12 4,85.513    0,85.513 0,94.907 100,94.907 100,85.513  "/>
</g>
<text x="0.0" y="111.515725" font-size="4.74535" font-weight="bold" font-family="Helvetica Neue, Helvetica, Arial-Unicode, Arial, Sans-serif" fill="#000000">Created by Joris Hoogendoorn</text><text x="0.0" y="116.261075" font-size="4.74535" font-weight="bold" font-family="Helvetica Neue, Helvetica, Arial-Unicode, Arial, Sans-serif" fill="#000000">from the Noun Project</text></svg>