<svg xmlns="http://www.w3.org/2000/svg" xmlns:xlink="http://www.w3.org/1999/xlink" version="1.1" id="Ebene_2" x="0px" y="0px" width="100px" height="100px" viewBox="5.0 -10.0 100.0 135.0" enable-background="new 0 0 100 100" xml:space="preserve">
<path fill-rule="evenodd" clip-rule="evenodd" d="M92.97,28.511c-8.133-16.7-24.721-27.075-43.291-27.075  c-7.318,0-14.388,1.637-21.013,4.866C4.828,17.918-5.112,46.782,6.507,70.643c8.131,16.701,24.718,27.075,43.289,27.075  c7.318,0,14.389-1.638,21.015-4.866C94.648,81.236,104.589,52.373,92.97,28.511z M75.456,20.703l-4.963,15.108l-15.526,1.906  l-14.043-10.35l2.644-10.845l18.489-4.101L75.456,20.703z M29.98,9c6.212-3.028,12.84-4.563,19.699-4.563  c2.883,0,5.712,0.272,8.465,0.788l1.718,4.61l-17.453,3.872l-12.78-0.636l-0.429-3.666C29.461,9.271,29.715,9.129,29.98,9z   M38.805,29.532l14.077,10.375l-2.863,14.729l-18.398,6.091l-9.3-6.152l3.363-21.005L38.805,29.532z M26.363,10.98l0.39,3.333  l-8.728,9.881l-6.597,1.602C15.077,19.885,20.116,14.762,26.363,10.98z M9.439,29.366l9.016-2.188l4.35,5.403l-3.441,21.491  l-7.05,3.439l-7.555-4.896C4.221,44.538,5.877,36.506,9.439,29.366z M16.115,79.673c-2.715-3.059-5.05-6.522-6.91-10.343  c-2.032-4.173-3.359-8.509-4.031-12.872l6.242,4.046l5.966,12.233L16.115,79.673z M49.796,94.718  c-11.882,0-22.895-4.532-31.117-12.385l1.278-6.999l11.638,3.263l18.969,12.945l0.294,3.146  C50.504,94.696,50.151,94.718,49.796,94.718z M64.434,82.647l-12.585,6.139L33.822,76.484l-0.611-13.125l17.937-5.938l13.285,7.364  V82.647z M78.297,84.507l-10.863-2.364V64.725L79.158,53.9l15.303,1.287C93.032,66.493,87.361,77.086,78.297,84.507z M79.606,50.927  l-6.526-13.38l5.271-16.043l6.989,0.366c1.883,2.439,3.541,5.097,4.933,7.955c3.508,7.205,4.909,14.894,4.465,22.375L79.606,50.927z  "/>
<text x="0.0" y="117.5" font-size="5.0" font-weight="bold" font-family="Helvetica Neue, Helvetica, Arial-Unicode, Arial, Sans-serif" fill="#000000">by Jule Steffen &amp; Matthias Schmidt</text><text x="0.0" y="122.5" font-size="5.0" font-weight="bold" font-family="Helvetica Neue, Helvetica, Arial-Unicode, Arial, Sans-serif" fill="#000000">from the Noun Project</text></svg>