<svg xmlns="http://www.w3.org/2000/svg" width="100" height="100" viewBox="5.0 -10.0 100.0 135.0"><path fill-rule="evenodd" clip-rule="evenodd" d="M92.97 28.51C84.837 11.81 68.25 1.437 49.68 1.437c-7.32 0-14.39 1.637-21.014 4.866-23.838 11.616-33.778 40.48-22.16 64.34 8.132 16.702 24.72 27.076 43.29 27.076 7.318 0 14.39-1.638 21.015-4.866 23.838-11.616 33.78-40.48 22.16-64.34zm-17.514-7.807L70.493 35.81l-15.526 1.907-14.043-10.35 2.644-10.845 18.49-4.1 13.398 8.28zM29.98 9c6.212-3.028 12.84-4.563 19.7-4.563 2.882 0 5.71.272 8.464.788l1.718 4.61-17.453 3.872-12.78-.636-.43-3.665c.26-.134.515-.276.78-.405zm8.825 20.532l14.077 10.375-2.863 14.73-18.4 6.09-9.3-6.152 3.364-21.005 13.12-4.038zM26.363 10.98l.39 3.333-8.728 9.88-6.597 1.603c3.65-5.91 8.688-11.034 14.935-14.816zM9.44 29.366l9.015-2.188 4.35 5.403-3.44 21.492-7.05 3.44-7.556-4.897c-.54-8.077 1.117-16.11 4.68-23.25zm6.675 50.307c-2.715-3.06-5.05-6.522-6.91-10.343-2.032-4.173-3.36-8.51-4.03-12.872l6.24 4.046 5.967 12.233-1.267 6.936zm33.68 15.045c-11.88 0-22.894-4.532-31.116-12.385l1.277-7 11.638 3.264 18.97 12.945.293 3.146c-.354.008-.707.03-1.062.03zm14.64-12.07l-12.586 6.138L33.82 76.484l-.61-13.125 17.936-5.94 13.285 7.365v17.862zm13.862 1.86l-10.863-2.365V64.725L79.158 53.9l15.303 1.287c-1.428 11.306-7.1 21.9-16.163 29.32zm1.31-33.58l-6.527-13.38 5.27-16.044 6.99.366c1.883 2.44 3.54 5.097 4.933 7.955 3.508 7.205 4.91 14.894 4.465 22.375l-15.132-1.273z"/><text y="117.5" font-size="5" font-weight="bold" font-family="Helvetica Neue, Helvetica, Arial-Unicode, Arial, Sans-serif">by Jule Steffen &amp; Matthias Schmidt</text><text y="122.5" font-size="5" font-weight="bold" font-family="Helvetica Neue, Helvetica, Arial-Unicode, Arial, Sans-serif">from the Noun Project</text></svg>