<svg xmlns="http://www.w3.org/2000/svg" viewBox="5.0 -10.0 100.0 135.0" height="100" width="100"><path d="M50 38.8c-6.2 0-11.3 5-11.3 11.3s5 11.3 11.3 11.3 11.3-5 11.3-11.3S56.2 38.8 50 38.8zm0 20c-4.8 0-8.8-3.9-8.8-8.8s3.9-8.8 8.8-8.8 8.8 3.9 8.8 8.8-4 8.8-8.8 8.8zM50 13.8c-6.2 0-11.3 5-11.3 11.3s5 11.3 11.3 11.3 11.3-5 11.3-11.3S56.2 13.8 50 13.8zm0 20c-4.8 0-8.8-3.9-8.8-8.8s3.9-8.8 8.8-8.8 8.8 3.9 8.8 8.8-4 8.8-8.8 8.8zM50 63.8c-6.2 0-11.3 5-11.3 11.3s5 11.3 11.3 11.3 11.3-5 11.3-11.3S56.2 63.8 50 63.8zm0 20c-4.8 0-8.8-3.9-8.8-8.8s3.9-8.8 8.8-8.8 8.8 3.9 8.8 8.8-4 8.8-8.8 8.8zM88.8 13.8H70c-.7-5-4.9-8.8-10-8.8H40c-5.1 0-9.3 3.8-9.9 8.8H11.3c-.3 0-.6.1-.9.4s-.4.5-.4.8v5c0 5.2 4.2 9.4 9.4 9.4 1.7 0 3.1 1.4 3.1 3.1V35c0 .7.6 1.3 1.3 1.3H30v2.5H11.2c-.3 0-.6.1-.9.4s-.3.5-.3.8v5c0 5.2 4.2 9.4 9.4 9.4 1.7 0 3.1 1.4 3.1 3.1V60c0 .7.6 1.3 1.3 1.3H30v2.5H11.2c-.3 0-.6.1-.9.4s-.3.5-.3.8v5c0 5.2 4.2 9.4 9.4 9.4 1.7 0 3.1 1.4 3.1 3.1V85c0 .7.6 1.3 1.3 1.3h6.3c.6 4.9 4.8 8.8 9.9 8.8h20c5.1 0 9.3-3.8 9.9-8.8h6.3c.7 0 1.3-.6 1.3-1.3v-2.5c0-1.7 1.4-3.1 3.1-3.1 5.2 0 9.4-4.2 9.4-9.4v-5c0-.3-.1-.6-.4-.9s-.6-.4-.9-.4H69.9v-2.5h6.3c.7 0 1.3-.6 1.3-1.3v-2.5c0-1.7 1.4-3.1 3.1-3.1 5.2 0 9.4-4.2 9.4-9.4v-5c0-.3-.1-.6-.4-.9s-.6-.4-.9-.4H69.9v-2.5h6.3c.7 0 1.3-.6 1.3-1.3v-2.5c0-1.7 1.4-3.1 3.1-3.1 5.2 0 9.4-4.2 9.4-9.4v-5c0-.3-.1-.6-.4-.9s-.5-.1-.8-.1zM30 83.8h-5v-1.3c0-3.1-2.5-5.6-5.6-5.6-3.8 0-6.9-3.1-6.9-6.9v-3.8H30v17.6zm0-25h-5v-1.3c0-3.1-2.5-5.6-5.6-5.6-3.8 0-6.9-3.1-6.9-6.9v-3.8H30v17.6zm0-25h-5v-1.3c0-3.1-2.5-5.6-5.6-5.6-3.8 0-6.9-3.1-6.9-6.9v-3.8H30v17.6zM65 85c0 2.8-2.2 5-5 5H40c-2.8 0-5-2.2-5-5V15c0-2.8 2.2-5 5-5h20c2.8 0 5 2.2 5 5v70zm22.5-18.7V70c0 3.8-3.1 6.9-6.9 6.9-3.1 0-5.6 2.5-5.6 5.6v1.3h-5V66.3h17.5zm0-25V45c0 3.8-3.1 6.9-6.9 6.9-3.1 0-5.6 2.5-5.6 5.6v1.3h-5V41.3h17.5zm0-21.3c0 3.8-3.1 6.9-6.9 6.9-3.1 0-5.6 2.5-5.6 5.6v1.3h-5V16.3h17.5V20z"/><text y="117.5" font-size="5" font-weight="bold" font-family="Helvetica Neue, Helvetica, Arial-Unicode, Arial, Sans-serif">Created by Arthur Shlain</text><text y="122.5" font-size="5" font-weight="bold" font-family="Helvetica Neue, Helvetica, Arial-Unicode, Arial, Sans-serif">from the Noun Project</text></svg>