<svg xmlns="http://www.w3.org/2000/svg" viewBox="5.0 -10.0 100.0 135.0" height="100" width="100"><path d="M50 95c19.3 0 35-15.7 35-35 0-21-21.6-42.7-33.2-54.3-1-1-2.6-1-3.5 0C36.6 17.3 15 39 15 60c0 19.3 15.7 35 35 35zm0-84c11.4 11.4 30 31 30 49 0 16.5-13.5 30-30 30S20 76.5 20 60c0-18 18.6-37.5 30-49z"/><text y="117.5" font-size="5" font-weight="bold" font-family="Helvetica Neue, Helvetica, Arial-Unicode, Arial, Sans-serif">Created by Arthur Shlain</text><text y="122.5" font-size="5" font-weight="bold" font-family="Helvetica Neue, Helvetica, Arial-Unicode, Arial, Sans-serif">from the Noun Project</text></svg>