<svg xmlns="http://www.w3.org/2000/svg" xmlns:xlink="http://www.w3.org/1999/xlink" version="1.1" id="&#1057;&#1083;&#1086;&#1081;_1" x="0px" y="0px" viewBox="5.0 -10.0 100.0 135.0" enable-background="new 0 0 100 100" xml:space="preserve" height="100px" width="100px">
<path d="M50,95c19.3,0,35-15.7,35-35c0-21-21.6-42.7-33.2-54.3c-1-1-2.6-1-3.5,0C36.6,17.3,15,39,15,60C15,79.3,30.7,95,50,95z   M50,11c11.4,11.4,30,31,30,49c0,16.5-13.5,30-30,30S20,76.5,20,60C20,42,38.6,22.5,50,11z"/>
<text x="0.0" y="117.5" font-size="5.0" font-weight="bold" font-family="Helvetica Neue, Helvetica, Arial-Unicode, Arial, Sans-serif" fill="#000000">Created by Arthur Shlain</text><text x="0.0" y="122.5" font-size="5.0" font-weight="bold" font-family="Helvetica Neue, Helvetica, Arial-Unicode, Arial, Sans-serif" fill="#000000">from the Noun Project</text></svg>