<svg version="1" xmlns="http://www.w3.org/2000/svg" width="98.802" height="100" viewBox="0 0 98.802 100"><path d="M88.496 55.794V35.826c0-2.833 2.32-5.14 5.17-5.14 2.838 0 5.137 2.307 5.137 5.14V63.17c0 3.78-1.36 7.434-3.802 10.286L77.95 91.564c-1.692 1.593-2.107 3.004-2.107 5.14V100h-18.56l-.02-7.844c0-2.986-.245-6.98 3.494-10.896l21.635-21.725c.77-.743 1.782-1.15 2.853-1.15 2.264 0 4.105 1.838 4.105 4.098 0 .977-.346 1.924-.977 2.67l-10.435 11.18c-.677.792-1.82 2.286-2.39 4.117-.307.95-.394 1.88-.41 2.94h3.358c.014-.757.07-1.365.25-1.93.33-1.057.984-2.006 1.476-2.616l10.593-11.626c1.332-1.343 2.062-3.082 2.062-4.91 0-2.744-1.65-5.268-4.38-6.514zM10.306 55.794V35.826c0-2.833-2.32-5.14-5.17-5.14C2.3 30.687 0 32.994 0 35.827V63.17c0 3.78 1.36 7.434 3.802 10.286l17.052 18.107c1.69 1.593 2.106 3.004 2.106 5.14V100h18.56l.02-7.844c0-2.986.244-6.98-3.495-10.896L16.41 59.537c-.77-.743-1.782-1.15-2.853-1.15-2.263 0-4.105 1.838-4.105 4.098 0 .977.345 1.924.977 2.67l10.435 11.178c.677.793 1.82 2.287 2.39 4.118.306.952.393 1.88.41 2.942h-3.358c-.014-.758-.07-1.366-.25-1.93-.33-1.058-.984-2.007-1.476-2.617L7.988 67.218c-1.333-1.343-2.06-3.082-2.06-4.91 0-2.744 1.648-5.268 4.38-6.514zM51.354 8.845c2.435 0 4.405-1.974 4.405-4.408 0-2.428-1.972-4.405-4.406-4.405-2.43 0-4.4 1.978-4.4 4.405 0 2.434 1.97 4.408 4.4 4.408zM27.452 8.87c-2.47 0-4.468-1.982-4.468-4.437 0-2.45 2-4.433 4.468-4.433s4.475 1.984 4.475 4.433c0 2.455-2.006 4.436-4.475 4.436z"/><circle cx="73.244" cy="22.786" r="3.09"/><path d="M77.718 27.4h-8.336c-.038 0-2.79-.25-2.79-.25l-3.49-12.17c-1.407-4.9-5.516-4.75-5.516-4.75h-11.3s-4.105-.15-5.51 4.75l-1.723 5.992-1.72-5.992c-1.412-4.9-5.51-4.75-5.51-4.75H23.08s-4.11-.15-5.515 4.75l-3.52 12.263c-.334 1.147.293 2.02 1.297 2.31 1 .285 2.026-.22 2.285-1.134l3.428-11.954 1.67-.003L17.72 37.16h4.423V51.86c0 1.21.977 2.197 2.19 2.197 1.21 0 2.2-.987 2.2-2.197v-14.7h1.856v14.7c0 1.21.976 2.197 2.186 2.197 1.217 0 2.204-.987 2.204-2.197V37.16h4.346l-4.953-20.697 1.664.003 3.39 11.827c.056.202.146.387.265.547.332.502.91.78 1.556.76.645.02 1.22-.254 1.552-.75.14-.178.234-.384.29-.61l3.373-11.775 1.538-.003v34.972c0 1.43 1.17 2.585 2.596 2.585 1.426 0 2.584-1.155 2.584-2.586V31.537h1.91v19.897c0 1.43 1.16 2.585 2.582 2.585 1.43 0 2.602-1.155 2.602-2.586V16.462l1.67.003 3.283 11.953c.178.59.67.977 1.26 1.126.023.007.037.018.06.024.52.12 2.933.802 4.704 1.308v21.69c0 1 .82 1.813 1.82 1.813s1.815-.813 1.815-1.814V41.73h1.423v10.836c0 1 .812 1.813 1.813 1.813s1.825-.813 1.825-1.814v-20.26h1.395v6.863c0 .752.61 1.36 1.354 1.36.746 0 1.336-.608 1.336-1.36v-7.81c0-2.185-1.924-3.96-4.112-3.96z"/></svg>